<?xml version="1.0" standalone="no"?>
<!DOCTYPE svg PUBLIC "-//W3C//DTD SVG 20010904//EN"
 "http://www.w3.org/TR/2001/REC-SVG-20010904/DTD/svg10.dtd">
<svg version="1.0" xmlns="http://www.w3.org/2000/svg"
 width="1044.000000pt" height="1044.000000pt" viewBox="0 0 1044.000000 1044.000000"
 preserveAspectRatio="xMidYMid meet">
<metadata>
Created by potrace 1.11, written by Peter Selinger 2001-2013
</metadata>
<g transform="translate(0.000000,1044.000000) scale(0.100000,-0.100000)"
fill="#000000" stroke="none">
<path d="M3905 6831 c-153 -44 -234 -119 -279 -254 -38 -113 -36 -290 3 -402
21 -60 71 -137 103 -159 21 -15 19 -19 -237 -533 -497 -997 -680 -1382 -713
-1505 -28 -103 47 -261 153 -323 90 -53 86 -53 978 -52 455 0 829 -2 831 -4 2
-2 7 -35 11 -72 25 -257 182 -382 473 -376 244 5 393 115 437 324 10 49 12
309 11 1252 l-1 1190 360 0 c198 0 383 3 411 6 207 26 336 137 374 322 26 126
12 298 -33 395 -28 59 -103 133 -163 160 -99 45 -122 46 -1424 48 -1152 1
-1239 0 -1295 -17z m846 -925 c1 -10 1 -111 -1 -299 l0 -58 -90 180 c-49 99
-90 182 -90 185 0 10 180 3 181 -8z m-502 -878 c60 -123 165 -338 233 -478
l125 -255 -234 -3 c-128 -1 -339 -1 -468 0 l-234 3 58 120 c32 66 105 215 161
330 57 116 104 212 105 215 5 15 140 290 143 290 1 0 51 -100 111 -222z"/>
</g>
</svg>
