<?xml version="1.0" standalone="no"?>
<!DOCTYPE svg PUBLIC "-//W3C//DTD SVG 20010904//EN"
 "http://www.w3.org/TR/2001/REC-SVG-20010904/DTD/svg10.dtd">
<svg version="1.0" xmlns="http://www.w3.org/2000/svg"
 width="1044.000000pt" height="1044.000000pt" viewBox="0 0 1044.000000 1044.000000"
 preserveAspectRatio="xMidYMid meet">
<metadata>
Created by potrace 1.11, written by Peter Selinger 2001-2013
</metadata>
<g transform="translate(0.000000,1044.000000) scale(0.100000,-0.100000)"
fill="#000000" stroke="none">
<path d="M4222 7599 c-368 -33 -593 -229 -658 -575 -30 -164 -19 -397 27 -544
22 -71 78 -182 94 -187 6 -2 43 62 83 142 47 95 76 143 84 139 7 -4 8 -3 4 5
-9 15 21 64 35 56 5 -4 12 8 16 25 3 17 9 27 12 22 3 -6 20 -11 36 -12 56 -4
63 -1 58 20 -3 11 -10 20 -15 20 -5 0 -7 4 -4 9 8 12 -37 8 -46 -4 -5 -7 -8
-6 -8 0 0 15 65 76 120 112 186 124 434 137 639 33 65 -32 92 -53 162 -123 39
-39 48 -54 43 -72 -3 -13 0 -26 6 -30 9 -5 10 -1 5 14 -10 33 2 25 30 -20 18
-28 23 -44 16 -52 -9 -12 8 -47 24 -47 4 0 2 7 -5 15 -7 9 -10 18 -7 21 8 8
29 -35 22 -45 -3 -5 1 -15 8 -23 8 -7 12 -19 10 -25 -6 -18 17 -54 29 -47 7 4
8 3 4 -4 -4 -7 -14 -12 -22 -12 -18 0 -18 -24 1 -40 10 -9 15 -9 15 -1 0 6 -6
11 -12 12 -7 0 -3 5 10 11 12 6 24 9 26 7 2 -2 47 -88 101 -191 l97 -188 124
0 124 0 0 -249 0 -249 309 -618 c171 -340 308 -621 305 -626 -3 -4 -1 -8 5 -8
11 0 151 -284 151 -306 0 -8 4 -14 8 -14 14 0 136 -263 135 -290 -1 -14 1 -19
4 -11 6 16 74 -115 206 -399 172 -371 198 -433 186 -441 -13 -7 0 -38 16 -37
11 0 73 -139 91 -207 8 -27 14 -69 14 -91 0 -43 -29 -185 -39 -194 -3 -3 -7
-12 -9 -19 -10 -45 -64 -132 -120 -192 -71 -77 -142 -124 -252 -165 l-75 -29
-450 -3 c-247 -1 -455 -4 -462 -7 -9 -3 -7 -23 8 -77 83 -298 315 -457 690
-472 295 -11 539 72 679 232 51 58 113 183 143 287 l22 80 3 2053 2 2052 623
0 c663 0 737 4 877 50 264 87 420 293 457 603 10 87 7 282 -7 358 -59 337
-254 516 -610 558 -41 5 -981 9 -2089 10 -1108 1 -2017 3 -2020 4 -3 2 -43 0
-89 -4z"/>
<path d="M4716 6699 c-4 -28 -5 -53 -3 -56 3 -2 8 19 12 47 4 28 5 53 2 56 -2
3 -7 -19 -11 -47z"/>
<path d="M4740 6600 c0 -5 5 -10 11 -10 5 0 7 5 4 10 -3 6 -8 10 -11 10 -2 0
-4 -4 -4 -10z"/>
<path d="M4945 6590 c-3 -5 -1 -10 4 -10 6 0 11 5 11 10 0 6 -2 10 -4 10 -3 0
-8 -4 -11 -10z"/>
<path d="M4112 6568 c19 -28 41 -36 36 -13 -1 10 -14 22 -27 27 -23 8 -23 7
-9 -14z"/>
<path d="M4862 6516 c-5 -6 -13 -22 -17 -36 -7 -22 -6 -23 8 -12 10 9 17 10
22 2 3 -6 11 -8 16 -4 5 3 6 10 3 16 -4 7 -2 8 4 4 7 -4 12 -26 12 -48 0 -53
6 -46 14 17 6 49 5 51 -24 62 -22 8 -32 8 -38 -1z"/>
<path d="M4127 6496 c-22 -17 -22 -27 1 -19 15 6 15 5 3 -10 -7 -9 -17 -14
-22 -11 -5 3 -9 -2 -9 -10 0 -9 -6 -15 -12 -13 -26 5 -12 -36 21 -62 19 -14
31 -19 26 -11 -6 12 -5 13 5 3 11 -11 10 -17 -10 -38 -13 -14 -20 -28 -17 -32
4 -3 7 -3 7 2 0 4 7 2 15 -5 13 -11 19 -10 33 6 10 10 18 23 19 28 0 13 26 46
36 46 4 0 5 -5 2 -10 -4 -6 7 -13 24 -16 32 -7 37 -17 40 -74 2 -37 25 -70 49
-70 12 0 12 3 2 15 -17 20 -15 63 4 99 16 32 13 46 -9 46 -8 0 -17 5 -21 12
-4 7 -3 8 4 4 8 -5 10 -2 6 8 -11 27 -154 1 -154 -28 0 -6 -8 5 -19 24 -11 21
-15 39 -10 46 5 6 6 14 2 17 -3 4 -1 7 5 7 13 0 17 46 4 54 -4 2 -15 -1 -25
-8z"/>
<path d="M4180 6490 c0 -5 10 -10 23 -10 18 0 19 2 7 10 -19 13 -30 13 -30 0z"/>
<path d="M4810 6396 c0 -22 23 -56 37 -56 13 0 15 2 5 9 -7 4 -14 18 -15 29
-1 12 -7 22 -14 22 -7 0 -13 -2 -13 -4z"/>
<path d="M4405 6309 c1 -11 6 -24 11 -27 6 -4 13 -15 17 -24 3 -10 13 -18 20
-18 9 0 15 -10 15 -26 0 -14 10 -35 22 -47 15 -13 19 -22 11 -25 -9 -3 52 -42
66 -42 2 0 -7 20 -19 45 -12 25 -25 45 -30 45 -4 0 -5 6 -2 14 3 7 -6 23 -20
33 -14 11 -23 23 -20 26 3 3 -3 12 -15 19 -12 7 -21 18 -21 24 0 7 -7 15 -16
18 -21 8 -21 9 -19 -15z"/>
<path d="M3761 6295 c0 -11 4 -27 9 -35 9 -13 10 -13 9 0 0 8 -4 24 -9 35 l-9
20 0 -20z"/>
<path d="M4085 6290 c-3 -5 -1 -10 4 -10 6 0 11 5 11 10 0 6 -2 10 -4 10 -3 0
-8 -4 -11 -10z"/>
<path d="M4146 6264 c-9 -8 -16 -25 -15 -37 0 -19 2 -18 11 6 6 18 15 26 24
23 8 -3 14 1 14 9 0 19 -15 19 -34 -1z"/>
<path d="M4788 6163 c3 -21 7 -30 12 -23 8 13 2 47 -9 54 -4 3 -5 -11 -3 -31z"/>
<path d="M4280 6160 c0 -5 5 -10 10 -10 6 0 10 5 10 10 0 6 -4 10 -10 10 -5 0
-10 -4 -10 -10z"/>
<path d="M4660 6149 c0 -6 -7 -9 -15 -5 -9 3 -15 0 -15 -9 0 -17 16 -20 24 -6
3 5 16 7 29 3 20 -5 21 -4 8 11 -15 19 -31 22 -31 6z"/>
<path d="M4450 6106 c0 -8 5 -18 10 -21 6 -3 10 1 10 9 0 8 -4 18 -10 21 -5 3
-10 -1 -10 -9z"/>
<path d="M4371 5973 c1 -4 -1 -16 -6 -26 -10 -23 15 -50 38 -41 17 6 24 24 9
24 -5 0 -8 10 -8 22 1 14 -6 24 -17 26 -10 2 -17 0 -16 -5z"/>
<path d="M4317 5871 c17 -16 33 -35 35 -42 5 -16 84 -23 105 -9 16 10 15 11
-5 6 -19 -4 -21 -2 -11 10 6 8 19 13 28 12 9 -2 15 3 13 10 -2 9 4 12 16 8 13
-4 18 -1 18 14 0 16 -7 20 -38 20 -21 0 -38 -4 -38 -10 0 -5 -7 -10 -15 -10
-9 0 -18 -7 -21 -15 -8 -21 -39 -19 -55 4 -8 11 -25 22 -39 26 -24 7 -24 6 7
-24z"/>
<path d="M5107 5893 c-4 -3 -7 -11 -7 -17 0 -6 5 -4 10 4 5 8 10 10 10 5 0 -6
14 -9 33 -7 17 2 59 -6 92 -18 34 -12 61 -16 63 -11 2 5 10 7 19 4 11 -4 14
-2 9 5 -4 7 -18 12 -30 12 -13 0 -40 7 -59 15 -37 15 -128 21 -140 8z"/>
<path d="M3570 5871 c0 -12 86 -71 103 -71 7 0 -2 9 -19 19 -18 11 -35 24 -38
30 -10 16 -46 33 -46 22z"/>
<path d="M5065 5870 c3 -5 11 -10 16 -10 6 0 7 5 4 10 -3 6 -11 10 -16 10 -6
0 -7 -4 -4 -10z"/>
<path d="M4546 5862 c-3 -6 -1 -14 5 -17 14 -9 20 -2 10 14 -6 8 -11 9 -15 3z"/>
<path d="M5241 5835 c3 -16 13 -20 44 -22 37 -2 38 -1 12 7 -16 5 -35 14 -44
21 -13 11 -15 10 -12 -6z"/>
<path d="M4595 5808 c-55 -28 -88 -55 -76 -62 5 -3 14 1 21 9 18 22 77 48 94
42 8 -3 16 2 19 14 6 24 -8 24 -58 -3z"/>
<path d="M5021 5806 c2 -2 14 -9 26 -15 18 -9 22 -9 18 2 -3 7 -15 13 -26 14
-12 1 -20 1 -18 -1z"/>
<path d="M3727 5783 c4 -11 8 -13 11 -5 2 7 9 9 14 6 7 -4 8 -2 4 4 -12 19
-36 15 -29 -5z"/>
<path d="M4991 5786 c-8 -9 -23 -16 -34 -16 -16 0 -18 -3 -10 -11 11 -11 59
-16 69 -7 2 3 1 15 -4 27 -7 20 -9 21 -21 7z"/>
<path d="M4909 5780 c0 -3 -2 -13 -4 -22 -4 -20 10 -24 21 -7 3 6 1 16 -5 22
-6 6 -11 9 -12 7z"/>
<path d="M4609 5723 c-13 -16 -12 -17 4 -4 9 7 17 15 17 17 0 8 -8 3 -21 -13z"/>
<path d="M4780 5718 c0 -7 4 -19 9 -27 7 -11 13 -10 35 4 30 20 34 29 7 22
-10 -2 -26 0 -35 5 -11 6 -16 5 -16 -4z"/>
<path d="M4693 5699 c26 -5 54 -6 62 -2 8 5 -13 9 -48 9 l-62 2 48 -9z"/>
<path d="M4530 5688 c-14 -5 -36 -7 -50 -4 -36 7 -57 -16 -52 -59 4 -30 6 -33
23 -24 10 5 19 16 19 24 0 11 11 15 39 15 22 0 43 5 47 11 3 6 23 18 43 26 20
9 30 18 23 20 -7 3 -23 -2 -37 -11 -19 -13 -24 -13 -27 -2 -2 10 -9 11 -28 4z"/>
<path d="M3617 5661 c10 -43 19 -56 26 -37 3 8 2 18 -2 21 -5 3 -7 13 -4 23 3
12 -1 19 -11 19 -12 0 -14 -7 -9 -26z"/>
<path d="M4647 5596 c-4 -10 -1 -13 8 -9 8 3 12 9 9 14 -7 12 -11 11 -17 -5z"/>
<path d="M3643 5573 c1 -18 6 -32 11 -30 16 5 17 22 2 42 -14 19 -15 18 -13
-12z"/>
<path d="M4960 5579 c0 -11 5 -17 10 -14 6 3 10 1 10 -4 0 -6 4 -11 9 -11 14
0 1 38 -15 44 -9 4 -14 -2 -14 -15z"/>
<path d="M3890 5570 c-18 -12 -2 -12 25 0 13 6 15 9 5 9 -8 0 -22 -4 -30 -9z"/>
<path d="M3847 5537 c-3 -8 4 -19 14 -25 12 -8 19 -8 19 -2 0 5 -5 10 -11 10
-5 0 -8 4 -4 9 3 5 1 12 -4 15 -5 3 -11 0 -14 -7z"/>
<path d="M4504 5526 c-8 -21 -4 -25 19 -17 17 6 17 8 3 20 -13 11 -17 11 -22
-3z"/>
<path d="M4558 5479 c-3 -16 0 -33 6 -36 6 -3 8 -3 4 1 -4 5 -3 19 2 32 5 13
5 26 1 29 -5 2 -11 -9 -13 -26z"/>
<path d="M3573 5452 c-28 -9 -18 -25 22 -39 24 -8 33 -7 48 7 20 19 23 38 4
22 -15 -13 -60 -4 -51 9 3 5 4 9 2 8 -2 -1 -13 -4 -25 -7z"/>
<path d="M4726 5431 c-4 -5 3 -7 14 -4 23 6 26 13 6 13 -8 0 -17 -4 -20 -9z"/>
<path d="M3810 5396 c0 -8 7 -16 15 -20 17 -6 18 -4 9 18 -8 20 -24 21 -24 2z"/>
<path d="M4540 5399 c0 -5 5 -7 10 -4 6 3 10 8 10 11 0 2 -4 4 -10 4 -5 0 -10
-5 -10 -11z"/>
<path d="M3507 5354 c3 -7 14 -16 25 -20 11 -3 17 -8 14 -12 -10 -10 26 -42
47 -42 11 0 29 -7 39 -17 16 -15 18 -15 18 0 0 18 -29 37 -47 30 -7 -2 -20 0
-29 5 -15 8 -13 11 12 23 49 24 37 44 -28 45 -43 1 -55 -2 -51 -12z"/>
<path d="M3960 5351 c-19 -11 -44 -28 -54 -40 -11 -12 -26 -21 -35 -21 -11 0
-12 -3 -3 -12 9 -9 24 -3 66 26 31 21 77 44 103 51 l48 13 -45 1 c-25 0 -60
-8 -80 -18z"/>
<path d="M4575 5320 c-3 -5 1 -10 9 -10 9 0 16 5 16 10 0 6 -4 10 -9 10 -6 0
-13 -4 -16 -10z"/>
<path d="M4112 5295 c6 -14 13 -23 16 -21 7 7 -9 46 -18 46 -5 0 -4 -11 2 -25z"/>
<path d="M3778 5303 c7 -3 16 -2 19 1 4 3 -2 6 -13 5 -11 0 -14 -3 -6 -6z"/>
<path d="M4025 5290 c-16 -10 -35 -19 -42 -19 -6 -1 -24 -6 -40 -13 -15 -6
-31 -11 -34 -10 -3 1 -6 -9 -5 -20 1 -14 12 -26 34 -35 17 -7 32 -9 32 -4 0 4
20 14 45 21 43 12 49 19 46 48 -1 6 8 12 19 12 13 0 20 5 17 13 -2 6 -10 11
-16 10 -6 -2 -11 2 -11 7 0 14 -10 12 -45 -10z"/>
<path d="M4770 5235 c0 -8 2 -15 4 -15 2 0 6 7 10 15 3 8 1 15 -4 15 -6 0 -10
-7 -10 -15z"/>
<path d="M5138 5226 c-16 -12 -15 -14 14 -22 36 -11 52 -36 18 -29 -12 2 -29
-4 -40 -15 -19 -19 -19 -20 0 -30 10 -5 27 -10 37 -10 15 0 16 2 3 10 -13 9
-13 11 0 20 8 5 20 10 27 10 7 0 10 7 6 16 -3 9 0 20 8 25 11 7 11 9 -2 9 -9
0 -22 7 -29 15 -15 18 -20 18 -42 1z"/>
<path d="M5069 5212 c6 -12 16 -24 22 -28 8 -4 8 -1 0 14 -6 12 -16 24 -22 28
-8 4 -8 1 0 -14z"/>
<path d="M4858 5153 c7 -3 16 -2 19 1 4 3 -2 6 -13 5 -11 0 -14 -3 -6 -6z"/>
<path d="M3586 5138 c3 -7 16 -21 29 -31 21 -15 25 -16 25 -3 0 9 -13 22 -30
31 -21 11 -28 12 -24 3z"/>
<path d="M4938 5133 c7 -3 16 -2 19 1 4 3 -2 6 -13 5 -11 0 -14 -3 -6 -6z"/>
<path d="M3663 5087 c8 -16 20 -22 47 -23 33 -2 37 1 32 18 -4 15 -11 19 -31
15 -14 -3 -33 -1 -42 4 -15 7 -15 6 -6 -14z"/>
<path d="M3280 5073 c0 -11 11 -30 25 -43 24 -22 25 -23 25 -3 0 11 -11 30
-25 43 -24 22 -25 23 -25 3z"/>
<path d="M5254 5078 c-4 -6 -3 -8 3 -5 6 4 13 0 17 -8 3 -8 10 -15 16 -15 6 0
5 7 -2 20 -15 23 -24 25 -34 8z"/>
<path d="M5345 5014 c-20 -16 -23 -22 -10 -17 22 8 50 32 44 38 -2 2 -17 -8
-34 -21z"/>
<path d="M3864 5019 c-3 -6 -2 -15 4 -21 7 -7 7 -19 1 -35 -8 -22 -7 -23 26
-21 23 1 34 6 31 14 -5 13 31 7 40 -7 3 -5 13 -9 22 -9 15 1 15 2 -2 12 -10 6
-34 26 -52 44 -33 35 -57 43 -70 23z"/>
<path d="M5245 5000 c3 -5 8 -10 11 -10 2 0 4 5 4 10 0 6 -5 10 -11 10 -5 0
-7 -4 -4 -10z"/>
<path d="M5280 4980 c0 -5 7 -10 15 -10 8 0 15 5 15 10 0 6 -7 10 -15 10 -8 0
-15 -4 -15 -10z"/>
<path d="M3764 4945 c0 -14 5 -25 10 -25 4 0 6 9 3 19 -3 13 1 21 12 24 11 3
10 5 -5 6 -17 1 -22 -4 -20 -24z"/>
<path d="M5302 4935 c0 -16 2 -22 5 -12 2 9 2 23 0 30 -3 6 -5 -1 -5 -18z"/>
<path d="M3713 4923 c9 -2 17 -13 17 -24 0 -15 7 -19 34 -19 19 0 38 5 42 11
5 9 -1 10 -19 5 -20 -5 -31 -1 -44 14 -10 11 -24 19 -33 19 -11 -1 -11 -2 3
-6z"/>
<path d="M5302 4878 c0 -13 -2 -32 -5 -43 -3 -11 -6 -22 -6 -25 -1 -3 -5 1
-10 9 -6 9 -11 10 -15 2 -4 -6 -2 -11 3 -11 20 0 11 -18 -24 -51 -19 -19 -35
-37 -35 -42 0 -11 63 52 85 85 20 32 31 98 17 98 -5 0 -10 -10 -10 -22z"/>
<path d="M5030 4850 c0 -6 7 -10 15 -10 8 0 15 2 15 4 0 2 -7 6 -15 10 -8 3
-15 1 -15 -4z"/>
<path d="M4997 4830 c-3 -11 0 -23 5 -27 6 -3 8 -1 4 5 -3 6 -2 13 4 17 12 8
13 25 1 25 -5 0 -11 -9 -14 -20z"/>
<path d="M3560 4825 c0 -8 5 -15 10 -15 6 0 10 7 10 15 0 8 -4 15 -10 15 -5 0
-10 -7 -10 -15z"/>
<path d="M3788 4828 c9 -9 15 -9 24 0 9 9 7 12 -12 12 -19 0 -21 -3 -12 -12z"/>
<path d="M4118 4833 c6 -2 18 -2 25 0 6 3 1 5 -13 5 -14 0 -19 -2 -12 -5z"/>
<path d="M5080 4815 c7 -9 15 -13 17 -11 7 7 -7 26 -19 26 -6 0 -6 -6 2 -15z"/>
<path d="M5685 4810 c-3 -5 -2 -10 4 -10 5 0 13 5 16 10 3 6 2 10 -4 10 -5 0
-13 -4 -16 -10z"/>
<path d="M5451 4794 c7 -8 13 -26 14 -39 1 -30 19 -50 35 -40 8 5 5 14 -11 31
-21 23 -21 24 -3 24 17 0 16 3 -6 20 -30 24 -48 26 -29 4z"/>
<path d="M3248 4788 c9 -9 15 -9 24 0 9 9 7 12 -12 12 -19 0 -21 -3 -12 -12z"/>
<path d="M3730 4790 c0 -4 7 -13 15 -20 10 -9 15 -9 15 -1 0 6 1 14 3 18 1 3
-6 7 -15 9 -10 1 -18 -1 -18 -6z"/>
<path d="M3546 4738 c10 -67 24 -121 40 -146 13 -20 20 -22 70 -16 49 6 78 0
113 -23 6 -4 -43 -73 -51 -73 -13 0 -9 -27 6 -39 11 -9 18 -4 35 25 22 36 43
41 49 11 3 -12 -1 -15 -13 -10 -14 5 -16 2 -10 -15 5 -18 2 -22 -13 -22 -23 0
-37 -29 -22 -44 7 -7 10 -5 10 7 0 9 5 17 10 17 6 0 10 -5 10 -11 0 -5 5 -7
12 -3 7 5 9 2 6 -7 -3 -8 -2 -23 2 -34 6 -16 1 -24 -24 -37 -17 -9 -25 -17
-19 -18 7 0 26 8 44 19 17 10 39 17 49 14 17 -5 17 -8 4 -46 -8 -23 -21 -48
-29 -57 -8 -9 -12 -20 -8 -23 3 -4 0 -7 -7 -7 -11 0 -11 -3 -2 -12 7 -7 12
-20 12 -29 0 -9 6 -22 14 -28 11 -9 15 -6 20 14 4 17 11 23 19 19 7 -4 2 4
-10 18 -28 30 -28 37 0 90 17 33 29 43 47 43 14 0 25 6 25 13 0 19 34 42 62
42 16 0 21 4 16 16 -4 11 -14 14 -34 10 -16 -3 -31 -1 -34 4 -3 6 0 10 8 10 8
0 19 6 25 13 8 9 3 12 -18 13 -47 2 -60 11 -60 44 0 27 3 30 20 25 19 -6 19
-4 9 19 -9 19 -20 26 -41 26 -34 0 -35 9 -3 60 31 49 31 70 3 95 -35 31 -51
34 -77 14 -13 -11 -35 -19 -48 -19 -13 0 -22 -3 -19 -8 2 -4 -14 -6 -37 -5
-27 1 -44 -3 -52 -14 -17 -23 -69 -9 -84 24 -10 21 -9 28 1 34 10 7 10 9 1 9
-7 0 -13 5 -13 11 0 5 5 7 10 4 6 -3 10 -2 10 3 0 8 -22 22 -36 22 -2 0 -1
-19 2 -42z m134 -138 c0 -5 -2 -10 -4 -10 -3 0 -8 5 -11 10 -3 6 -1 10 4 10 6
0 11 -4 11 -10z"/>
<path d="M5505 4759 c-10 -15 3 -25 16 -12 7 7 7 13 1 17 -6 3 -14 1 -17 -5z"/>
<path d="M3025 4735 c33 -7 62 -11 64 -9 8 8 -52 24 -87 23 -32 -1 -29 -2 23
-14z"/>
<path d="M3942 4692 c-9 -6 -5 -12 13 -20 30 -14 47 -8 38 13 -6 16 -31 19
-51 7z"/>
<path d="M5060 4686 c0 -2 8 -10 18 -17 15 -13 16 -12 3 4 -13 16 -21 21 -21
13z"/>
<path d="M5309 4655 c-6 -40 -4 -53 7 -43 3 3 4 23 2 44 l-3 39 -6 -40z"/>
<path d="M5645 4660 c-3 -5 -1 -10 4 -10 6 0 11 5 11 10 0 6 -2 10 -4 10 -3 0
-8 -4 -11 -10z"/>
<path d="M5649 4622 c5 -10 17 -25 26 -32 13 -11 13 -8 -2 18 -19 33 -41 46
-24 14z"/>
<path d="M3515 4590 c-3 -5 -1 -10 4 -10 6 0 11 5 11 10 0 6 -2 10 -4 10 -3 0
-8 -4 -11 -10z"/>
<path d="M5106 4573 c15 -33 24 -41 24 -24 0 5 -9 19 -20 32 l-20 24 16 -32z"/>
<path d="M3385 4559 c-10 -15 3 -25 16 -12 7 7 7 13 1 17 -6 3 -14 1 -17 -5z"/>
<path d="M3459 4543 c-13 -16 -12 -17 4 -4 16 13 21 21 13 21 -2 0 -10 -8 -17
-17z"/>
<path d="M5523 4547 c0 -7 8 -14 18 -14 12 -1 16 3 12 13 -7 18 -30 19 -30 1z"/>
<path d="M3735 4530 c-16 -17 -16 -20 -3 -15 9 4 19 13 22 21 7 19 2 18 -19
-6z"/>
<path d="M5210 4510 c6 -11 13 -20 16 -20 2 0 0 9 -6 20 -6 11 -13 20 -16 20
-2 0 0 -9 6 -20z"/>
<path d="M3920 4480 c8 -5 11 -10 5 -10 -5 0 1 -7 14 -16 17 -12 26 -13 34 -5
8 8 6 11 -8 11 -15 0 -17 2 -7 9 10 6 8 10 -10 14 -34 10 -45 8 -28 -3z"/>
<path d="M4000 4441 c0 -4 11 -6 25 -3 14 2 25 6 25 8 0 2 -11 4 -25 4 -14 0
-25 -4 -25 -9z"/>
<path d="M4070 4420 c-23 -7 -23 -8 -3 -9 12 -1 25 4 28 9 3 6 5 10 3 9 -2 -1
-14 -5 -28 -9z"/>
<path d="M5215 4410 c-3 -5 1 -10 10 -10 9 0 13 5 10 10 -3 6 -8 10 -10 10 -2
0 -7 -4 -10 -10z"/>
<path d="M4055 4390 c-17 -7 -14 -9 13 -9 20 -1 31 3 27 9 -7 12 -13 12 -40 0z"/>
<path d="M4079 4349 c13 -11 26 -17 29 -15 7 8 -25 36 -40 36 -7 -1 -3 -9 11
-21z"/>
<path d="M5872 4320 c-7 -11 -10 -20 -6 -20 7 0 34 27 34 34 0 13 -16 5 -28
-14z"/>
<path d="M2890 4302 c0 -5 7 -15 15 -22 8 -7 15 -8 15 -2 0 5 -7 15 -15 22 -8
7 -15 8 -15 2z"/>
<path d="M3691 4300 c-9 -5 -4 -9 13 -12 14 -3 26 -2 26 2 0 12 -26 19 -39 10z"/>
<path d="M3900 4287 c0 -8 18 -21 40 -30 22 -8 40 -14 40 -13 0 2 -11 15 -25
30 -26 28 -55 35 -55 13z"/>
<path d="M5410 4295 c0 -2 10 -10 23 -16 20 -11 21 -11 8 4 -13 16 -31 23 -31
12z"/>
<path d="M5962 4277 c21 -12 53 -32 73 -45 l36 -22 -7 22 -6 23 26 -24 c32
-30 41 -25 15 7 -13 17 -24 22 -39 17 -14 -4 -30 2 -51 19 -17 14 -43 26 -57
26 -26 0 -26 -1 10 -23z"/>
<path d="M3565 4280 c4 -6 11 -8 16 -5 14 9 11 15 -7 15 -8 0 -12 -5 -9 -10z"/>
<path d="M5716 4278 c3 -5 12 -8 20 -8 8 0 14 -10 14 -22 1 -37 25 -62 48 -49
13 7 22 7 30 -1 7 -7 12 -8 12 -4 0 5 6 4 13 -2 10 -8 12 -2 8 31 -3 37 -14
56 -32 57 -3 0 -11 -15 -17 -32 -9 -30 -10 -31 -11 -8 -1 14 -5 30 -9 35 -8
12 -83 14 -76 3z m121 -30 c-3 -8 -6 -5 -6 6 -1 11 2 17 5 13 3 -3 4 -12 1
-19z"/>
<path d="M3376 4250 c-21 -14 -35 -16 -52 -9 -20 7 -24 5 -24 -11 0 -14 5 -18
17 -13 9 4 14 2 11 -3 -3 -5 1 -16 10 -23 14 -13 15 -12 10 7 -4 15 -1 23 12
27 9 3 25 14 35 25 22 24 19 24 -19 0z"/>
<path d="M3741 4223 c0 -5 4 -17 9 -28 8 -18 9 -17 9 8 1 15 -3 27 -9 27 -5 0
-10 -3 -9 -7z"/>
<path d="M5680 4214 c8 -8 23 -20 34 -26 19 -10 18 -8 -3 16 -26 27 -53 37
-31 10z"/>
<path d="M3415 4208 c11 -6 24 -17 28 -25 12 -20 27 -15 26 10 0 12 -3 16 -6
10 -3 -10 -8 -9 -20 2 -8 8 -22 15 -31 15 -14 -1 -14 -3 3 -12z"/>
<path d="M3550 4212 c0 -5 7 -17 15 -28 16 -21 19 -62 6 -83 -7 -10 -16 -9
-49 10 -22 13 -42 21 -45 19 -2 -3 -2 -27 1 -53 4 -42 7 -48 24 -44 28 8 64
-14 60 -37 -3 -13 0 -16 9 -11 9 6 11 2 7 -13 -4 -15 -2 -19 8 -15 8 3 14 0
14 -7 0 -8 10 -9 30 -5 26 6 29 4 23 -10 -5 -15 -1 -17 30 -13 19 2 33 0 31
-4 -3 -4 5 -8 16 -8 20 0 19 3 -13 35 -20 20 -38 49 -42 65 -4 17 -15 35 -26
40 -24 13 -25 29 -1 29 29 0 127 13 131 17 2 2 -10 5 -27 5 -39 2 -44 3 -57
10 -5 4 -27 12 -47 18 -23 8 -38 19 -39 29 0 14 -2 13 -9 -3 -8 -19 -9 -19 -9
3 -1 34 -2 36 -13 50 -12 14 -28 16 -28 4z m110 -112 c-33 -11 -52 -12 -46 -2
2 4 19 8 38 9 30 1 31 1 8 -7z"/>
<path d="M3597 4201 c-4 -17 0 -20 23 -18 18 1 26 7 22 15 -2 7 -7 10 -10 8
-3 -3 -11 -1 -17 4 -9 8 -14 5 -18 -9z"/>
<path d="M3884 4201 c1 -8 17 -24 36 -35 28 -16 32 -17 22 -3 -8 9 -22 19 -32
22 -10 3 -21 11 -23 18 -2 7 -3 6 -3 -2z"/>
<path d="M3275 4160 c-3 -5 -1 -10 4 -10 6 0 11 5 11 10 0 6 -2 10 -4 10 -3 0
-8 -4 -11 -10z"/>
<path d="M5719 4151 c-8 -11 -19 -16 -31 -13 -14 3 -17 0 -12 -12 3 -9 11 -16
17 -16 6 0 7 -3 4 -6 -3 -4 -2 -15 3 -25 7 -12 6 -22 -3 -31 -21 -23 -38 -58
-28 -58 6 0 17 10 26 23 8 12 18 21 22 19 11 -4 14 46 3 53 -5 3 -10 11 -10
18 0 6 7 1 16 -11 26 -37 32 -20 25 66 -2 18 -19 15 -32 -7z"/>
<path d="M3750 4140 c0 -5 5 -10 11 -10 5 0 7 5 4 10 -3 6 -8 10 -11 10 -2 0
-4 -4 -4 -10z"/>
<path d="M3257 4127 c-3 -9 -2 -19 4 -23 15 -9 18 -2 9 20 -6 17 -7 18 -13 3z"/>
<path d="M6132 4113 c-15 -6 -6 -23 14 -23 8 0 14 7 14 15 0 15 -6 17 -28 8z"/>
<path d="M3448 4093 c7 -3 16 -2 19 1 4 3 -2 6 -13 5 -11 0 -14 -3 -6 -6z"/>
<path d="M3915 4075 c27 -22 55 -37 55 -30 0 12 -26 32 -50 39 -24 7 -25 7 -5
-9z"/>
<path d="M3666 4056 c3 -9 11 -16 16 -16 13 0 5 23 -10 28 -7 2 -10 -2 -6 -12z"/>
<path d="M3720 4046 c0 -2 7 -9 15 -16 13 -11 14 -10 9 4 -5 14 -24 23 -24 12z"/>
<path d="M3800 3935 c7 -8 17 -15 22 -15 6 0 5 7 -2 15 -7 8 -17 15 -22 15 -6
0 -5 -7 2 -15z"/>
<path d="M3840 3809 c0 -5 5 -7 10 -4 6 3 10 8 10 11 0 2 -4 4 -10 4 -5 0 -10
-5 -10 -11z"/>
<path d="M2530 3746 c0 -2 7 -6 15 -10 8 -3 15 -1 15 4 0 6 -7 10 -15 10 -8 0
-15 -2 -15 -4z"/>
<path d="M5170 3665 c7 -9 15 -13 17 -11 7 7 -7 26 -19 26 -6 0 -6 -6 2 -15z"/>
<path d="M2657 3653 c-10 -10 -8 -23 4 -23 5 0 8 4 5 9 -4 5 0 12 6 14 7 3 8
6 2 6 -6 1 -14 -2 -17 -6z"/>
<path d="M5206 3642 c6 -4 14 -16 17 -26 4 -10 10 -16 13 -13 9 8 -15 47 -29
47 -8 0 -9 -3 -1 -8z"/>
<path d="M5140 3600 c0 -11 2 -20 4 -20 2 0 6 9 9 20 3 11 1 20 -4 20 -5 0 -9
-9 -9 -20z"/>
<path d="M2575 3600 c-3 -5 1 -10 9 -10 8 0 18 5 21 10 3 6 -1 10 -9 10 -8 0
-18 -4 -21 -10z"/>
<path d="M2723 3575 c-10 -11 -8 -14 16 -13 20 1 28 5 24 14 -7 18 -25 17 -40
-1z"/>
<path d="M6436 3563 c-6 -14 -5 -15 5 -6 7 7 10 15 7 18 -3 3 -9 -2 -12 -12z"/>
<path d="M5903 3513 c9 -2 23 -2 30 0 6 3 -1 5 -18 5 -16 0 -22 -2 -12 -5z"/>
<path d="M2386 3485 c3 -8 20 -22 37 -30 l31 -16 -29 31 c-31 32 -48 39 -39
15z"/>
<path d="M5861 3474 c0 -11 3 -14 6 -6 3 7 2 16 -1 19 -3 4 -6 -2 -5 -13z"/>
<path d="M2345 3470 c-3 -5 -1 -10 4 -10 6 0 11 5 11 10 0 6 -2 10 -4 10 -3 0
-8 -4 -11 -10z"/>
<path d="M2686 3441 c-4 -7 -5 -15 -2 -18 9 -9 19 4 14 18 -4 11 -6 11 -12 0z"/>
<path d="M2462 3415 c-1 -14 3 -25 8 -25 5 0 7 7 4 15 -5 12 -2 13 12 8 18 -6
18 -6 2 10 -22 22 -23 22 -26 -8z"/>
<path d="M2895 3410 c-3 -5 -1 -10 4 -10 6 0 11 5 11 10 0 6 -2 10 -4 10 -3 0
-8 -4 -11 -10z"/>
<path d="M2330 3398 c0 -8 5 -19 11 -25 13 -13 59 -4 66 13 3 8 10 11 17 7 6
-3 8 -2 3 2 -4 5 -28 10 -52 13 -33 2 -45 0 -45 -10z"/>
<path d="M5232 3399 c2 -7 10 -15 17 -17 8 -3 12 1 9 9 -2 7 -10 15 -17 17 -8
3 -12 -1 -9 -9z"/>
<path d="M5176 3361 c18 -44 19 -44 33 -27 19 23 4 64 -24 62 -22 -1 -23 -2
-9 -35z"/>
<path d="M2425 3349 c1 -22 10 -36 26 -45 31 -17 40 -17 33 0 -3 8 -13 12 -22
10 -14 -5 -14 -4 1 6 14 9 21 7 37 -12 11 -13 19 -26 20 -30 0 -5 8 -8 17 -8
14 0 13 3 -5 16 -27 18 -28 31 -4 36 13 3 9 8 -17 22 -22 12 -30 13 -25 5 4
-8 -5 -4 -20 9 -38 29 -44 28 -41 -9z"/>
<path d="M2604 3365 c-18 -13 -18 -14 4 -8 12 3 25 9 28 14 8 14 -10 11 -32
-6z"/>
<path d="M6082 3361 c-9 -5 -7 -12 8 -26 25 -23 37 -13 18 14 -8 12 -19 17
-26 12z"/>
<path d="M6190 3350 c19 -11 44 -19 55 -19 13 0 6 6 -20 19 -52 25 -81 25 -35
0z"/>
<path d="M2680 3345 c0 -11 4 -27 10 -35 8 -12 10 -12 16 4 4 11 0 24 -10 34
-15 15 -16 15 -16 -3z"/>
<path d="M2850 3341 c0 -5 7 -14 15 -21 13 -10 15 -9 15 9 0 12 -6 21 -15 21
-8 0 -15 -4 -15 -9z"/>
<path d="M2548 3292 c9 -10 19 -17 21 -16 6 5 -20 34 -30 34 -5 0 -1 -8 9 -18z"/>
<path d="M6235 3299 c8 -12 56 -32 62 -25 4 3 -54 36 -64 36 -2 0 -1 -5 2 -11z"/>
<path d="M5683 3260 c6 -11 15 -20 19 -20 12 0 -3 28 -18 34 -11 4 -12 2 -1
-14z"/>
<path d="M2580 3266 c0 -9 47 -56 56 -56 5 0 15 -9 22 -20 7 -12 17 -18 22
-15 5 3 18 2 28 -4 24 -13 55 4 33 18 -8 5 -11 16 -8 25 4 10 1 16 -8 16 -8 0
-15 -4 -15 -9 0 -15 -54 1 -86 26 -30 22 -44 28 -44 19z"/>
<path d="M5981 3233 c7 -12 15 -20 18 -17 3 2 -3 12 -13 22 -17 16 -18 16 -5
-5z"/>
<path d="M5702 3205 c6 -14 15 -25 20 -25 11 0 10 7 -2 31 -16 28 -32 23 -18
-6z"/>
<path d="M2216 3176 c-10 -24 -23 -37 -42 -42 -25 -6 -26 -8 -9 -15 28 -10
103 39 87 56 -4 5 0 4 8 -1 8 -5 25 -10 38 -12 17 -2 22 2 22 19 0 18 -4 20
-27 16 -15 -3 -36 -1 -45 4 -14 8 -20 3 -32 -25z"/>
<path d="M2345 3170 c-7 -12 2 -12 30 0 19 8 19 9 -2 9 -12 1 -25 -3 -28 -9z"/>
<path d="M5742 3145 c0 -16 2 -22 5 -12 2 9 2 23 0 30 -3 6 -5 -1 -5 -18z"/>
<path d="M2426 3118 c3 -5 10 -6 15 -3 13 9 11 12 -6 12 -8 0 -12 -4 -9 -9z"/>
<path d="M3591 3103 c-10 -26 -10 -27 4 -9 8 11 15 23 15 28 0 15 -7 8 -19
-19z"/>
<path d="M2560 3110 c-8 -5 -12 -11 -9 -14 2 -3 11 -1 19 4 8 5 12 11 9 14 -2
3 -11 1 -19 -4z"/>
<path d="M5171 3091 c-14 -20 -16 -32 -4 -30 3 0 10 -6 15 -15 5 -8 15 -13 24
-9 10 4 12 8 5 13 -6 3 -13 17 -16 30 -6 31 -9 32 -24 11z"/>
<path d="M2493 3057 c-10 -17 -43 -31 -67 -28 -18 3 -18 2 -3 -14 23 -22 53
-11 72 26 15 29 13 41 -2 16z"/>
<path d="M4584 3045 c-7 -16 2 -35 17 -35 5 0 9 9 9 19 0 11 6 22 13 24 6 3 2
6 -11 6 -12 1 -25 -6 -28 -14z"/>
<path d="M5110 3050 c0 -5 7 -10 16 -10 8 0 12 5 9 10 -3 6 -10 10 -16 10 -5
0 -9 -4 -9 -10z"/>
<path d="M4100 3040 c8 -5 22 -9 30 -9 10 0 8 3 -5 9 -27 12 -43 12 -25 0z"/>
<path d="M5070 3041 c0 -10 19 -25 25 -20 1 2 -3 10 -11 17 -8 7 -14 8 -14 3z"/>
<path d="M4060 3023 c8 -3 19 -11 23 -17 6 -7 7 -6 4 4 -2 8 -12 16 -23 17
-13 2 -15 1 -4 -4z"/>
<path d="M5040 2997 c0 -19 16 -31 24 -18 3 5 -1 14 -9 21 -12 10 -15 10 -15
-3z"/>
<path d="M2288 2949 l-33 -31 38 27 c20 15 37 29 37 31 0 10 -12 2 -42 -27z"/>
<path d="M5465 2970 c3 -5 8 -10 11 -10 2 0 4 5 4 10 0 6 -5 10 -11 10 -5 0
-7 -4 -4 -10z"/>
<path d="M4115 2960 c3 -5 8 -10 11 -10 2 0 4 5 4 10 0 6 -5 10 -11 10 -5 0
-7 -4 -4 -10z"/>
<path d="M4980 2956 c0 -9 5 -16 10 -16 6 0 10 4 10 9 0 6 -4 13 -10 16 -5 3
-10 -1 -10 -9z"/>
<path d="M4756 2925 c-8 -23 4 -45 25 -45 12 0 16 5 13 15 -4 8 -12 15 -20 15
-8 0 -11 6 -8 15 4 8 4 15 1 15 -3 0 -7 -7 -11 -15z"/>
<path d="M4903 2929 c1 -6 -14 -19 -33 -30 -37 -20 -54 -49 -36 -61 6 -4 -6
-8 -26 -8 -26 0 -38 4 -38 14 0 20 -26 27 -39 12 -6 -8 -8 -21 -5 -31 5 -13 3
-16 -7 -13 -8 3 -13 12 -11 19 3 11 1 11 -8 3 -15 -15 15 -65 35 -58 7 3 16
-3 19 -14 5 -15 15 -19 49 -18 39 1 42 -1 45 -26 2 -16 8 -28 13 -28 13 0 11
-28 -3 -37 -7 -4 -31 -8 -52 -8 -26 0 -41 -5 -44 -15 -3 -8 -2 -12 2 -8 4 3
22 1 39 -7 18 -7 39 -10 47 -8 13 4 13 3 0 -6 -12 -8 -10 -12 10 -20 24 -9 23
-10 -10 -11 -33 -1 -34 -1 -16 -15 19 -14 19 -15 2 -15 -11 0 -25 8 -33 18 -8
9 -11 11 -7 3 5 -10 3 -13 -8 -8 -9 3 -24 -1 -35 -8 -16 -13 -15 -14 20 -15
25 0 37 -4 37 -14 0 -22 -15 -27 -44 -17 -20 8 -24 7 -19 -4 3 -8 11 -15 18
-15 7 0 20 -3 29 -6 11 -4 16 0 17 12 1 15 3 13 10 -6 8 -22 8 -21 4 7 -3 24
-1 31 9 27 9 -3 17 3 21 16 5 16 13 20 33 18 29 -3 43 -28 16 -28 -16 0 -16
-1 0 -19 9 -10 19 -27 21 -37 2 -11 7 -30 10 -44 l6 -25 -14 23 c-12 21 -15
22 -26 8 -16 -19 -7 -46 15 -46 12 0 15 -5 9 -22 -4 -13 -7 -31 -6 -41 0 -9
-5 -15 -10 -11 -6 3 -8 20 -5 37 3 18 3 25 -1 17 -15 -34 -30 -40 -49 -19 -10
11 -24 17 -31 14 -8 -2 -11 0 -8 5 3 6 1 10 -4 10 -6 0 -11 6 -11 13 0 7 -9
13 -20 14 -11 1 -18 -2 -15 -6 2 -5 -2 -14 -10 -21 -18 -15 -19 -30 -2 -30 18
0 19 -77 1 -84 -8 -3 -14 -1 -14 3 0 5 -8 7 -18 4 -22 -5 -25 -33 -4 -33 9 0
13 -7 9 -20 -3 -10 1 -24 9 -31 11 -9 14 -8 14 6 0 17 1 17 19 1 18 -16 22
-16 49 -2 16 8 32 13 34 10 3 -3 8 2 11 11 5 10 -4 19 -29 30 -38 16 -38 30
-1 37 39 7 62 -16 58 -59 -3 -34 -2 -35 14 -20 9 10 22 17 28 17 7 -1 6 -6 -4
-13 -9 -7 -16 -29 -17 -51 -1 -22 -6 -42 -12 -46 -12 -7 -3 -40 11 -40 5 0 9
-4 9 -10 0 -5 -12 -10 -27 -10 -19 0 -24 -3 -16 -11 5 -5 21 -7 35 -4 19 5 24
12 21 26 -6 22 23 37 40 20 6 -6 22 -11 35 -11 13 0 41 -14 62 -31 33 -27 42
-30 55 -19 14 11 19 7 16 -12 -2 -12 37 -10 44 2 3 6 -1 7 -12 4 -10 -3 -6 2
10 11 34 20 36 38 3 25 -28 -10 -36 -5 -36 23 0 19 -1 19 -19 3 -20 -18 -45
-13 -38 7 7 19 -13 48 -26 40 -7 -4 -7 0 2 10 18 23 31 21 31 -4 0 -17 4 -20
24 -15 17 4 26 0 34 -17 8 -18 11 -19 11 -4 1 9 6 17 13 17 6 0 31 10 55 21
40 19 45 20 61 6 16 -15 19 -15 30 3 17 27 15 30 -11 30 -13 0 -32 6 -43 14
-17 13 -23 12 -56 -6 -32 -18 -39 -19 -67 -7 -43 19 -40 40 3 23 9 -3 13 -10
10 -15 -3 -5 2 -9 10 -9 8 0 18 9 21 20 3 11 11 20 16 20 5 0 9 9 9 19 0 12 9
21 26 25 16 4 24 12 21 21 -3 7 5 20 18 29 23 15 24 14 54 -34 40 -64 50 -65
12 -2 -16 27 -32 60 -36 73 -19 66 -19 66 3 39 l21 -25 -12 35 c-7 19 -18 45
-25 57 -7 12 -16 39 -21 60 l-9 38 -1 -35 c0 -19 6 -46 14 -60 17 -29 19 -44
6 -35 -14 8 -24 -12 -27 -53 -2 -25 0 -32 7 -22 7 12 9 10 9 -7 0 -26 -19 -41
-30 -23 -10 17 -22 -3 -14 -24 5 -12 0 -16 -20 -16 -14 0 -34 -10 -45 -22 -18
-19 -24 -20 -47 -9 -15 6 -29 10 -31 7 -10 -10 9 -26 30 -27 19 -1 18 -2 -8
-14 -18 -8 -36 -10 -46 -4 -9 5 -20 4 -26 -2 -8 -8 -17 -6 -30 6 -26 22 -17
77 12 85 11 3 20 11 21 18 1 6 2 19 3 28 0 8 17 22 36 30 19 8 35 19 35 25 0
8 5 8 15 -1 13 -11 13 -8 4 20 -14 40 -7 47 59 53 65 6 72 11 35 30 -15 8 -27
19 -25 24 1 4 -1 8 -5 8 -5 1 -19 5 -32 9 -23 8 -23 9 -7 21 14 11 15 18 7 33
-8 15 -7 23 3 31 10 9 12 21 6 48 -5 19 -6 42 -3 49 3 8 -1 14 -11 14 -9 0
-16 4 -16 9 0 5 -9 7 -19 4 -13 -3 -21 2 -26 14 -9 27 -61 64 -103 74 -32 7
-35 6 -19 -6 18 -13 7 -32 -12 -21 -5 4 -8 -5 -7 -18 4 -35 -5 -45 -45 -49
-42 -5 -58 13 -54 56 2 15 -1 27 -6 27 -5 0 -9 7 -9 15 0 8 5 15 11 15 6 0 9
7 6 14 -4 10 -1 13 9 9 10 -3 12 0 8 10 -3 10 2 20 15 27 21 11 29 40 11 40
-5 0 -9 -5 -7 -11z m125 -386 c8 -10 19 -31 24 -46 6 -16 16 -26 23 -23 7 2
19 -11 28 -30 9 -19 15 -34 13 -34 -18 0 -36 15 -36 31 0 10 -5 19 -11 19 -5
0 -7 -4 -4 -10 3 -5 -1 -10 -9 -10 -16 0 -18 5 -20 45 -1 16 -9 21 -46 23 -43
3 -79 29 -80 56 0 16 104 -3 118 -21z m2 -384 c0 -18 -20 -18 -29 0 -9 16 -8
18 9 14 11 -3 20 -9 20 -14z"/>
<path d="M4110 2857 c0 -15 66 -74 74 -66 2 2 -14 22 -35 43 -26 26 -39 34
-39 23z"/>
<path d="M5222 2844 c-10 -11 -10 -19 -2 -35 10 -18 9 -19 -7 -11 -10 5 -24 7
-32 4 -8 -3 -11 0 -7 7 10 16 -7 14 -30 -4 -16 -12 -17 -14 -2 -15 20 0 50
-28 43 -40 -3 -5 8 -3 24 3 16 6 29 13 29 16 -1 4 2 14 6 23 4 10 4 28 -1 42
-7 20 -10 22 -21 10z"/>
<path d="M3220 2846 c0 -2 8 -10 18 -17 15 -13 16 -12 3 4 -13 16 -21 21 -21
13z"/>
<path d="M6746 2796 c10 -8 21 -12 24 -10 5 6 -21 24 -34 24 -6 0 -1 -6 10
-14z"/>
<path d="M6780 2790 c0 -5 5 -10 10 -10 6 0 10 -11 10 -25 0 -19 -5 -25 -22
-25 -19 0 -20 -2 -8 -10 31 -20 48 -12 44 23 -2 17 -6 38 -9 45 -5 14 -25 16
-25 2z"/>
<path d="M6728 2773 c-10 -2 -18 -13 -18 -24 0 -11 7 -19 18 -19 12 0 17 8 17
25 0 14 0 24 0 24 0 -1 -8 -3 -17 -6z"/>
<path d="M4496 2746 c3 -7 18 -17 34 -23 37 -14 30 0 -9 20 -20 10 -28 11 -25
3z"/>
<path d="M5641 2746 c-9 -11 -8 -18 4 -30 21 -20 22 -20 34 2 13 24 -21 49
-38 28z"/>
<path d="M5571 2696 c-8 -10 -9 -16 -1 -21 15 -9 52 5 47 18 -6 18 -32 20 -46
3z"/>
<path d="M6400 2696 c0 -8 5 -18 10 -21 6 -3 10 3 10 14 0 12 -4 21 -10 21 -5
0 -10 -6 -10 -14z"/>
<path d="M5250 2684 c0 -17 22 -14 28 4 2 7 -3 12 -12 12 -9 0 -16 -7 -16 -16z"/>
<path d="M5844 2691 c4 -5 -4 -7 -16 -3 -14 3 -19 2 -14 -6 4 -7 14 -12 21
-12 9 0 12 -6 9 -15 -8 -19 0 -19 20 1 22 22 20 44 -5 44 -11 0 -18 -4 -15 -9z"/>
<path d="M1947 2683 c-4 -3 -7 -16 -6 -27 0 -19 1 -19 10 3 10 24 8 36 -4 24z"/>
<path d="M2032 2669 c-7 -12 -11 -23 -8 -26 8 -9 36 17 36 33 0 20 -13 17 -28
-7z"/>
<path d="M5885 2669 c-4 -6 -5 -12 -2 -15 2 -3 7 2 10 11 7 17 1 20 -8 4z"/>
<path d="M3287 2639 c7 -7 15 -10 18 -7 3 3 -2 9 -12 12 -14 6 -15 5 -6 -5z"/>
<path d="M5464 2639 c-3 -5 -10 -7 -15 -4 -9 6 -13 -15 -10 -43 1 -7 -4 -11
-11 -10 -7 2 -14 -8 -16 -23 -3 -25 1 -27 65 -41 58 -12 68 -17 67 -36 0 -14
7 -23 24 -27 28 -7 65 3 57 15 -7 11 77 0 93 -13 9 -7 12 -5 12 8 0 15 4 13
25 -9 29 -31 41 -33 55 -6 6 11 17 20 25 20 22 0 28 19 15 51 -9 20 -16 27
-23 20 -11 -11 -39 -3 -31 10 3 5 -2 6 -10 3 -20 -8 -33 23 -17 39 8 8 16 5
31 -11 27 -28 51 -29 47 -1 -2 11 -9 24 -17 29 -10 6 -8 9 6 13 16 4 16 5 -3
6 -12 0 -25 6 -28 11 -8 13 -45 13 -45 0 0 -5 -8 -6 -17 -3 -12 5 -15 2 -10
-10 4 -11 -2 -17 -24 -22 -16 -4 -29 -11 -29 -17 0 -6 -7 -8 -14 -5 -10 4 -13
1 -9 -9 3 -7 0 -14 -7 -14 -6 0 -9 -4 -6 -9 4 -5 -4 -7 -16 -5 -13 2 -17 2
-10 -2 22 -11 12 -24 -17 -22 -19 1 -27 7 -24 15 3 7 9 13 13 13 5 0 6 9 3 20
-3 11 -11 20 -18 20 -7 0 -15 4 -17 9 -5 15 -88 50 -94 40z m46 -76 c0 -7 -11
-13 -25 -13 -18 0 -25 5 -25 18 0 10 3 21 6 25 9 9 44 -16 44 -30z m330 -53
c0 -5 -4 -10 -10 -10 -5 0 -10 5 -10 10 0 6 5 10 10 10 6 0 10 -4 10 -10z"/>
<path d="M4715 2620 c-3 -5 -16 -10 -28 -10 -14 0 -18 -3 -11 -10 7 -7 19 -8
36 -1 14 5 29 7 32 4 3 -4 6 1 6 10 0 18 -25 23 -35 7z"/>
<path d="M4510 2601 c0 -5 5 -13 10 -16 6 -3 10 -2 10 4 0 5 -4 13 -10 16 -5
3 -10 2 -10 -4z"/>
<path d="M5208 2584 c9 -13 22 -24 29 -24 6 0 9 -9 5 -22 -3 -14 -2 -19 6 -14
25 15 13 51 -22 67 l-35 16 17 -23z"/>
<path d="M5610 2598 c0 -7 5 -20 10 -28 8 -12 10 -9 10 13 0 15 -4 27 -10 27
-5 0 -10 -6 -10 -12z"/>
<path d="M5293 2552 c-7 -4 -9 -13 -4 -21 6 -9 10 -7 14 8 3 12 4 21 4 21 -1
0 -7 -4 -14 -8z"/>
<path d="M4658 2543 c7 -3 16 -2 19 1 4 3 -2 6 -13 5 -11 0 -14 -3 -6 -6z"/>
<path d="M1916 2458 c26 -32 64 -64 64 -54 0 7 -78 86 -85 86 -4 0 6 -15 21
-32z"/>
<path d="M5420 2465 c0 -11 24 -29 65 -50 22 -11 43 -24 47 -30 5 -6 8 -3 8 7
0 22 -38 58 -63 58 -10 0 -27 5 -38 10 -10 6 -19 8 -19 5z"/>
<path d="M4550 2450 c-13 -8 -12 -10 3 -10 9 0 17 5 17 10 0 12 -1 12 -20 0z"/>
<path d="M5210 2440 c-12 -8 -10 -10 8 -10 13 0 20 4 17 10 -7 12 -6 12 -25 0z"/>
<path d="M4431 2424 c0 -11 3 -14 6 -6 3 7 2 16 -1 19 -3 4 -6 -2 -5 -13z"/>
<path d="M5763 2400 c14 -11 28 -20 32 -20 4 0 -4 9 -18 20 -14 11 -28 20 -32
20 -4 0 4 -9 18 -20z"/>
<path d="M3860 2366 c0 -22 3 -27 11 -19 8 8 8 16 0 30 -9 16 -10 14 -11 -11z"/>
<path d="M5680 2355 c0 -14 5 -25 10 -25 6 0 10 5 10 10 0 14 27 12 33 -2 4
-10 6 -10 6 -1 1 7 -12 19 -29 28 -30 15 -30 15 -30 -10z"/>
<path d="M5810 2370 c0 -5 5 -10 11 -10 5 0 7 5 4 10 -3 6 -8 10 -11 10 -2 0
-4 -4 -4 -10z"/>
<path d="M3810 2366 c0 -2 7 -7 16 -10 8 -3 12 -2 9 4 -6 10 -25 14 -25 6z"/>
<path d="M5630 2331 c6 -12 13 -21 16 -21 3 0 2 5 -2 12 -5 8 -2 9 10 5 12 -5
16 -3 14 5 -3 7 -15 14 -27 16 -20 3 -21 1 -11 -17z"/>
<path d="M5758 2338 c5 -5 16 -8 23 -6 8 3 3 7 -10 11 -17 4 -21 3 -13 -5z"/>
<path d="M3775 2300 c-7 -11 -8 -11 23 -14 27 -3 28 0 3 14 -13 7 -22 7 -26 0z"/>
<path d="M5691 2303 c-1 -17 16 -25 25 -12 4 7 3 9 -4 5 -5 -3 -13 0 -15 6 -4
9 -6 10 -6 1z"/>
<path d="M5753 2297 c-13 -5 -23 -14 -23 -19 0 -4 -9 -8 -19 -8 -23 0 -37 -30
-19 -42 8 -5 19 -1 30 12 9 11 22 20 30 20 12 1 58 33 58 42 0 8 -36 5 -57 -5z"/>
<path d="M4570 2296 c0 -2 7 -6 15 -10 8 -3 15 -1 15 4 0 6 -7 10 -15 10 -8 0
-15 -2 -15 -4z"/>
<path d="M3807 2243 c-7 -11 10 -40 18 -31 4 4 3 14 -3 24 -5 9 -12 12 -15 7z"/>
<path d="M4422 2220 c14 -22 24 -19 15 5 -4 8 -11 15 -17 15 -6 0 -6 -7 2 -20z"/>
<path d="M4665 2230 c-3 -5 1 -10 10 -10 9 0 13 5 10 10 -3 6 -8 10 -10 10 -2
0 -7 -4 -10 -10z"/>
<path d="M5720 2210 c0 -14 38 -32 45 -21 3 6 -3 15 -14 20 -24 14 -31 14 -31
1z"/>
<path d="M5460 2191 c0 -10 30 -24 37 -17 3 2 -5 9 -16 16 -12 6 -21 7 -21 1z"/>
<path d="M5350 2120 c-13 -8 -12 -10 3 -10 9 0 17 5 17 10 0 12 -1 12 -20 0z"/>
<path d="M5575 2086 c10 -14 22 -26 27 -26 13 0 -15 43 -31 48 -9 3 -7 -5 4
-22z"/>
<path d="M5510 2053 c0 -5 5 -15 10 -23 8 -12 10 -11 10 8 0 12 -4 22 -10 22
-5 0 -10 -3 -10 -7z"/>
<path d="M5236 2040 c-19 -6 -19 -7 -1 -13 20 -8 29 -4 24 11 -2 5 -13 6 -23
2z"/>
<path d="M4797 2033 c-12 -12 -7 -22 16 -34 21 -12 21 -11 4 8 -9 11 -14 23
-10 26 3 4 4 7 1 7 -2 0 -8 -3 -11 -7z"/>
<path d="M5455 2018 c4 -13 11 -27 16 -33 5 -5 4 5 -2 23 -12 36 -24 44 -14
10z"/>
<path d="M4706 2001 c-3 -5 1 -12 10 -15 27 -10 36 -7 20 9 -17 17 -23 18 -30
6z"/>
<path d="M3228 1903 c7 -3 16 -2 19 1 4 3 -2 6 -13 5 -11 0 -14 -3 -6 -6z"/>
</g>
</svg>
